<?xml version="1.0" encoding="UTF-8"?>
<svg width="512px" height="512px" viewBox="0 0 512 512" version="1.1" xmlns="http://www.w3.org/2000/svg" xmlns:xlink="http://www.w3.org/1999/xlink">
    <!-- Generator: Sketch 51.2 (57519) - http://www.bohemiancoding.com/sketch -->
    <title>logo</title>
    <desc>Created with Sketch.</desc>
    <defs></defs>
    <g id="Page-1" stroke="none" stroke-width="1" fill="none" fill-rule="evenodd">
        <g id="logo">
            <rect id="Rectangle" fill="#D8D8D8" x="0" y="0" width="512" height="512"></rect>
            <path d="M256,356 C200.771525,356 156,311.228475 156,256 C156,200.771525 200.771525,156 256,156 C311.228475,156 356,200.771525 356,256 C356,311.228475 311.228475,356 256,356 Z M297.294291,315 C299.602655,314.999164 301.816509,314.08155 303.449091,312.447729 C305.081673,310.813907 305.999164,308.597593 306,306.286843 L306,244.288543 C306,218.764909 285.3644,198 260,198 C234.635433,198 214,218.764909 214,244.288543 L214,306.286843 C214,308.597593 214.916905,310.813907 216.548985,312.447729 C218.181065,314.08155 220.394585,314.999164 222.702698,314.999164 C225.010811,314.999164 227.224331,314.08155 228.856411,312.447729 C230.488491,310.813907 231.405396,308.597593 231.405396,306.286843 L231.405396,244.288543 C231.405396,228.373534 244.232873,215.425395 260,215.425395 C275.767964,215.425395 288.594436,228.373534 288.594436,244.288543 L288.594436,285.213471 L285.919745,282.578464 C277.382982,274.171179 268.782655,265.7547 268.697345,265.671129 C267.881891,264.862157 266.915055,264.222836 265.8512,263.789936 C264.788182,263.3562 263.649891,263.138079 262.501564,263.147271 C261.354073,263.1573 260.219127,263.392971 259.1628,263.843421 C258.106473,264.293871 257.149673,264.948236 256.3476,265.770579 C255.544691,266.592086 254.913236,267.564857 254.487527,268.632064 C254.062655,269.700107 253.852727,270.841693 253.869455,271.9908 C253.887018,273.139907 254.1304,274.273971 254.587891,275.327807 C255.044545,276.382479 255.705273,277.336029 256.5316,278.1333 C268.474036,289.817421 287.962982,308.982021 290.484618,311.708121 C291.299236,312.734379 292.334655,313.563407 293.513927,314.132529 C294.6932,314.702486 295.985382,314.999164 297.294291,315 Z M289,309 L289.004,309.0072 L289,309 Z M260.00042,252 C265.522852,252 270,247.523158 270,242.000546 C270,236.477261 265.522852,232 260.00042,232 C254.477148,232 250,236.477261 250,242.000546 C250,247.523158 254.477148,252 260.00042,252 Z" id="Combined-Shape" fill="#9B9B9B" fill-rule="nonzero"></path>
        </g>
    </g>
</svg>